<?xml version="1.0" encoding="utf-8" ?><svg xmlns="http://www.w3.org/2000/svg" xmlns:xlink="http://www.w3.org/1999/xlink" width="1024" height="1024" viewBox="0 0 1024 1024"><path fill="#EDAE8F" d="M0 0L1024 0L1024 1024L0 1024L0 0Z"/><path fill="#252B5B" d="M502.811 60.2221C569.869 57.6374 641.285 71.762 704.444 93.9121C746.457 108.621 787.993 124.662 828.988 142.01C840.25 146.714 855.362 151.262 865.703 156.682C868.077 157.926 871.073 159.893 872.153 162.472C873.09 164.71 872.671 167.836 872.085 170.107C870.588 175.903 868.267 181.73 866.367 187.419C861.299 202.591 855.783 217.585 850.628 232.72C845.537 247.668 839.998 262.475 835.016 277.453C829.706 293.415 824.858 310.039 818.467 325.599C817.279 328.49 815.798 331.386 812.564 332.418C810.063 333.216 806.935 332.361 804.522 331.574C792.847 327.765 778.44 320.461 766.933 315.286L701.243 286.046C710.68 302.709 718.582 320.252 728.062 336.898C763.519 400.545 803.976 461.275 849.05 518.516C874.487 551.41 901.285 583.23 929.374 613.891C938.624 623.839 947.915 633.742 957.724 643.144C967.073 652.105 977.164 660.788 986.024 670.21C987.422 671.696 988.734 673.23 989.421 675.182C990.165 677.298 989.933 678.985 988.984 680.974C985.118 689.076 953.732 713.752 944.522 721.01C838.097 805.112 719.199 872.09 592.119 919.528C563.232 930.373 533.802 939.715 503.949 947.517C478.705 954.254 452.617 960.524 426.711 964.063C422.066 964.697 414.722 966.774 410.329 965.262C408.554 963.777 407.538 961.701 406.738 959.556C403.641 951.257 402.002 941.737 399.715 933.134C394.348 912.3 388.769 891.522 382.977 870.802C346.505 739.772 303.25 610.726 253.387 484.184C245.724 508.406 238.417 532.693 230.4 556.809C227.649 565.086 223.846 578.729 219.724 585.801C218.794 587.397 215.935 589.504 214.1 589.665C211.767 589.869 207.856 588.374 205.655 587.526C194.896 583.38 184.311 578.6 173.662 574.167L119.997 552.182C94.5407 541.823 68.5823 532.474 43.5354 521.148C41.9932 520.451 40.6351 519.632 39.4759 518.379C38.1815 516.981 37.3571 515.338 37.4441 513.392C37.7071 507.512 52.7701 470.692 55.8997 462.137C61.7339 446.188 68.2707 430.467 74.6974 414.748C112.996 321.073 159.929 235.599 236.69 167.629C304.104 160.454 371.322 134.288 427.349 96.2812C434.831 91.2059 442.067 85.44 448.873 79.4906C453.838 75.1508 461.526 65.9448 467.101 63.333C473.325 60.4171 494.722 60.6008 502.811 60.2221Z"/><path fill="#FEFEFE" d="M515.387 76.5383C602.288 75.5084 686.013 103.305 765.871 134.852C785.628 142.657 805.98 149.918 825.127 159.126C817.085 180.109 809.561 201.33 801.868 222.445C792.429 248.034 783.282 273.729 774.428 299.526C764.102 295.938 754.061 290.816 744.08 286.347C733.687 281.693 723.103 277.462 712.642 272.963C705.44 269.866 696.552 264.967 688.756 263.935C686.196 263.597 683.275 264.804 681.362 266.469C679.793 267.835 679.148 269.702 679.072 271.742C678.712 281.503 694.561 310.032 699.38 319.431C722.162 362.901 747.261 405.116 774.57 445.894C794.385 474.675 815.164 502.78 836.872 530.161C870.504 573.731 906.569 615.366 944.896 654.869C862.792 727.802 770.298 788.121 670.45 833.845C637.931 849.114 604.625 863.634 570.732 875.599C545.633 884.656 520.218 892.814 494.536 900.055C484.884 902.694 475.177 905.123 465.42 907.341C459.19 908.727 446.592 910.251 441.329 912.953C440.118 913.576 439.48 914.396 439.16 915.728C438.746 917.454 439.112 919.399 440.288 920.749C441.363 921.984 442.897 922.44 444.477 922.502C448.688 922.667 453.139 920.946 457.216 920.031C472.995 916.491 488.546 912.609 504.144 908.307C538.681 898.782 572.274 886.54 605.528 873.279C699.047 836.466 787.595 788.101 869.11 729.31C895.43 710.516 921.704 691.409 945.192 669.092L952.622 662.319C957.851 667.687 963.558 672.634 969.105 677.672C858.534 774.4 731.311 850.237 593.632 901.489C537.37 922.361 480.909 938.711 421.511 947.945C415.897 934.889 413.252 920.343 409.725 906.63C404.588 886.659 399.266 866.518 393.537 846.713C364.143 741.325 329.859 637.362 290.796 535.162L274.018 491.36C269.854 480.29 266.222 467.687 260.11 457.581C259.075 456.998 257.984 456.469 256.867 456.06C254.095 455.047 250.601 455.129 247.973 456.53C246.185 457.482 244.87 458.772 243.95 460.57C240.117 468.057 237.955 477.508 235.374 485.543C229.554 503.662 224.036 521.743 217.771 539.727C205.868 535.41 194.248 529.778 182.488 525.024L98.7776 491.646C88.2337 487.491 77.8365 482.99 67.208 479.05C72.5854 465.622 77.4855 452.006 82.8952 438.593C98.049 400.058 115.316 362.388 134.616 325.754C139.441 316.721 144.121 307.578 149.419 298.811C168.503 267.768 190.472 238.595 215.034 211.678C229.568 230.301 245.013 248.27 263.637 262.941C301.437 292.717 342.924 308.566 391.583 302.663C430.732 297.913 466.233 278.767 490.558 247.514C519.413 210.443 525.024 159.052 520.819 113.602C519.663 101.098 516.982 88.9578 515.387 76.5383Z"/><path fill="#252B5B" d="M553.063 363.454C555.229 363.447 557.573 363.352 559.352 364.812C561.09 366.239 561.659 368.488 562.021 370.604C563.255 377.839 562.686 385.923 562.676 393.275L562.647 430.237C570.376 435.363 616.507 458.277 619.043 463.436C619.652 464.676 619.62 466.832 619.109 468.103C617.013 473.319 593.838 480.765 587.78 483.597C600.108 492.103 611.791 501.666 623.606 510.864C641.446 524.783 659.363 538.603 677.355 552.324L732.419 594.108C754.255 610.415 776.284 626.559 797.331 643.896C799.91 646.021 804.822 649.84 805.879 653.051C805.94 653.237 805.988 653.427 806.046 653.614C806.392 654.735 806.735 655.84 806.945 656.997C807.774 661.634 806.605 666.406 803.726 670.135C800.654 674.134 795.523 676.932 790.501 677.42C786.529 677.807 781.976 676.238 778.703 674.049C774.959 671.547 771.475 668.065 768.076 665.104C761.819 659.619 755.509 654.196 749.146 648.835L681.729 592.335C670.028 583.108 658.674 573.459 646.988 564.221C617.351 541.107 587.908 517.746 558.662 494.14C556.917 502.656 556.561 511.596 555.649 520.232C554.8 528.274 553.235 551.417 546.869 556.213C545.285 557.407 543.277 558.026 541.298 557.708C530.261 555.934 498.197 511.081 490.733 500.718C480.627 502.704 440.668 511.222 432.294 505.7C430.858 504.754 429.875 503.367 429.613 501.653C429.246 499.257 430.226 496.864 431.32 494.788C434.563 488.633 439.512 482.839 443.666 477.239C450.998 467.352 458.276 457.448 465.861 447.751C465.138 446.201 464.534 444.593 463.936 442.991C459.382 430.801 455.759 418.01 451.841 405.584C449.926 399.512 447.28 393.39 445.908 387.187C445.496 385.328 445.247 383.626 446.144 381.862C447.002 380.177 448.669 378.893 450.477 378.398C452.066 377.963 453.368 378.148 454.869 378.756C461.765 381.546 468.363 386.389 474.823 390.105C485.439 396.21 496.256 402.089 506.986 408.002L537.82 377.779C542.703 373.034 547.509 367.363 553.063 363.454Z"/><path fill="#FEFEFE" d="M545.119 390.359C545.188 390.377 545.268 390.371 545.325 390.414C547.052 391.738 546.55 429.081 547.7 434.902C547.832 435.567 548.113 437.311 548.518 437.857C550.511 440.547 586.228 460.597 592.358 464.669C582.54 467.312 551.837 477.899 544.495 483.004C539.682 496.859 538.813 523.475 538.337 538.368C526.312 524.84 515.764 509.71 504.89 495.245C503.027 492.627 500.898 490.148 498.889 487.637C483.044 488.85 467.206 490.981 451.492 493.319C460.24 479.682 473.029 465.232 480.462 451.52C477.828 434.079 469.578 417.965 465.944 400.735C473.259 404.611 480.823 407.823 488.333 411.278C495.111 414.397 501.92 417.927 509.028 420.209C518.503 415.889 536.313 397.827 545.119 390.359Z"/><path fill="#252B5B" d="M536.29 404.407C537.723 404.497 538.354 404.564 539.584 405.404C542.165 409.062 542.744 434.801 543.205 440.927C549.148 443.963 572.694 456.656 575.649 460.92C576.428 462.043 576.475 462.658 576.318 463.977C575.422 465.287 574.572 465.983 573.112 466.638C569.825 468.114 566.173 468.884 562.771 470.07C555.282 472.682 547.301 475.941 540.328 479.695L539.673 480.052C537.328 488.142 536.787 497.609 536.077 506.004C535.81 509.166 535.813 512.546 535.172 515.653C534.922 516.863 534.451 518.5 533.501 519.365C532.54 520.24 531.593 520.301 530.365 520.09C528.51 519.771 526.453 517.676 525.261 516.355C521.917 512.649 519.328 508.127 516.383 504.096C512.373 498.607 508.09 493.361 504.263 487.733L500.82 482.978C494.208 483.585 470 488.309 465.291 485.58C464.672 484.889 464.415 484.495 464.227 483.557C462.745 476.147 479.811 458.29 484.413 451.744L484.789 451.203C482.197 442.697 478.874 434.341 475.961 425.934C474.806 422.599 471.254 414.59 472.796 411.414C473.429 410.79 473.903 410.316 474.814 410.122C476.203 409.826 477.644 410.133 478.93 410.669C483.091 412.401 487.123 415.201 491.021 417.473C497.107 421.021 503.225 424.387 509.529 427.534C515.001 423.682 520.184 419.054 525.023 414.438C528.592 411.035 532.092 407.023 536.29 404.407Z"/><path fill="#FEFEFE" d="M531.66 421.392C533.676 428.665 531.615 437.592 534.294 446.092C540.09 452.016 551.139 456.407 558.381 461.149C550.284 464.385 539.422 467.483 532.336 472.438C529.218 479.058 528.104 493.459 526.245 501.55C520.515 492.644 513.637 484.193 507.513 475.525C507.061 475.111 506.791 474.837 506.261 474.48C501.62 471.354 483.446 475.156 477.554 476.068C483.324 468.554 489.761 461.321 495.017 453.45C493.571 444.174 489.112 434.706 485.948 425.871C491.634 429.208 502.93 436.796 509.197 437.159C515.71 437.537 526.622 425.749 531.66 421.392Z"/><path fill="#FEFEFE" d="M576.549 487.968L577.721 487.928C580.624 490.013 583.278 492.522 586.134 494.703C598.669 504.324 611.095 514.087 623.409 523.99C649.087 544.443 675.001 564.598 701.146 584.45L757.591 627.374C765.745 633.566 775.372 639.123 782.535 646.377C778.865 648.627 777.051 650.762 774.904 654.456L774.093 655.611C772.791 655.329 771.916 654.533 770.91 653.722C763.867 648.046 757.201 641.733 750.287 635.876C728.518 617.434 706.793 598.796 684.773 580.659C647.293 549.788 608.716 519.904 570.095 490.481L576.549 487.968Z"/><path fill="#FEFEFE" d="M790.156 653.53C791.107 653.591 792.052 653.625 792.966 653.921C794.474 654.411 795.746 655.349 796.346 656.874C797.022 658.593 796.578 660.534 795.756 662.117C794.415 664.702 792.432 665.588 789.809 666.533C789.226 666.544 788.574 666.583 787.991 666.495C786.318 666.243 784.791 665.604 783.942 664.02C783.16 662.562 783.374 660.916 783.917 659.429C785.102 656.18 787.151 654.929 790.156 653.53Z"/><path fill="#252B5B" d="M618.28 98.9322C620.234 98.8129 622.796 98.8991 624.462 100.08C625.519 100.83 626.003 101.518 626.355 102.768C627.522 106.914 627.294 111.998 627.683 116.308C628.257 122.659 629.156 128.857 630.292 135.126C634.958 160.863 644.528 187.82 656.926 210.882C659.414 215.512 673.901 239.466 673.89 241.435C673.878 243.568 672.597 244.603 671.121 245.876C670.299 246.119 669.488 246.304 668.634 246.384C667.033 246.533 665.736 246.075 664.531 244.984C660.44 241.28 657.155 233.635 654.339 228.854C634.404 195.003 616.345 147.166 615.94 107.507C615.906 104.19 615.839 101.413 618.28 98.9322Z"/><path fill="#252B5B" d="M164.648 298.919C165.175 298.889 165.21 298.876 165.809 298.907C171.994 299.232 181.708 310.709 185.714 315.244C210.19 342.948 226.662 378.522 237.892 413.428C239.628 418.824 243.07 425.406 242.735 431.108C242.027 432.615 240.913 433.133 239.544 433.943C237.852 434.095 236.501 434.303 234.881 433.632C231.904 430.855 223.918 404.504 221.367 398.186C211.801 374.49 199.755 350.997 183.878 330.876C180.289 326.327 176.571 321.962 172.508 317.827C169.24 314.502 164.921 311.049 162.315 307.208C161.649 306.226 161.063 304.851 161.119 303.638C161.216 301.568 163.22 300.132 164.648 298.919Z"/><path fill="#252B5B" d="M482.953 301.601C483.558 301.674 484.158 301.738 484.749 301.889C486.02 302.213 487.284 302.705 487.926 303.916C489.433 306.762 495.895 343.273 495.149 345.027C494.301 347.019 492.677 347.372 490.797 347.963C489.882 347.829 488.971 347.718 488.139 347.279C486.939 346.645 486.368 345.663 485.927 344.44C484.013 339.127 477.188 307.417 479.298 303.791C480.101 302.409 481.537 302.065 482.953 301.601Z"/><path fill="#252B5B" d="M483.172 552.472C485.345 552.438 487.726 552.246 489.422 553.889C490.706 555.134 490.766 556.561 490.581 558.221C489.969 563.682 482.667 587.482 480.177 592.324C479.6 593.447 478.645 594.211 477.668 594.976C475.9 595.394 474.114 595.79 472.447 594.753C471.433 594.122 470.85 592.993 470.641 591.846C470.096 588.86 479.042 560.609 480.854 556.164C481.426 554.763 482.208 553.627 483.172 552.472Z"/><path fill="#252B5B" d="M387.458 463.644C388.607 463.508 389.809 463.443 390.842 464.061C392.044 464.78 392.983 466.186 393.318 467.524C393.55 468.452 393.275 469.467 392.733 470.247C389.606 474.749 364.182 479.272 357.538 480.83C356.437 480.86 355.425 480.961 354.402 480.457C352.871 479.703 351.978 478.319 351.457 476.756C351.499 475.87 351.552 475.274 352.075 474.509C355.021 470.208 381.157 464.897 387.458 463.644Z"/><path fill="#252B5B" d="M639.303 379.357C639.927 379.347 640.493 379.367 641.112 379.437C643.133 379.665 644.812 380.132 646.114 381.779C646.392 382.741 646.475 383.257 646.238 384.261C644.935 389.764 624.473 404.147 618.934 407.52C618.712 407.564 618.492 407.62 618.268 407.652C616.631 407.89 615 407.675 613.707 406.556C612.742 405.722 612.061 404.551 612.141 403.245C612.248 401.485 613.588 399.696 614.73 398.452C618.887 393.927 633.507 383.81 639.303 379.357Z"/><path fill="#252B5B" d="M376.462 371.333C381.349 371.789 407.843 384.184 410.613 387.917C411.362 388.926 411.625 390.17 411.352 391.395C410.993 392.997 409.67 393.987 408.414 394.881C407.444 394.993 406.435 395.1 405.472 394.864C400.384 393.616 380.57 383.736 376.068 380.505C374.664 379.498 373.479 378.237 373.424 376.392C373.358 374.183 374.985 372.718 376.462 371.333Z"/><path fill="#FEFEFE" d="M474.397 102.925C475.411 103.997 475.577 107.23 475.782 108.665C481.243 146.929 478.831 191.535 454.829 223.376C439.122 244.213 416.234 257.284 390.415 260.889C354.965 265.839 322.638 252.49 294.805 231.529C281.859 221.444 270.271 209.728 260.329 196.673C325.38 189.838 387.712 166.943 441.722 130.047C453.168 122.104 465.246 113.535 474.397 102.925Z"/><path fill="#FEFEFE" d="M500.311 76.7163C501.75 76.644 502.496 76.4376 503.79 77.1133C505.398 82.6138 506.08 88.5803 506.945 94.2418C510.759 119.191 512.19 145.004 508.909 170.096C504.14 206.572 488.935 241.292 459.084 264.086C429.067 287.034 391.12 297.025 353.694 291.836C299.559 284.372 258.265 249.683 226.094 207.498L223.386 203.296C227.902 197.278 233.667 191.726 238.755 186.172C251.189 208.363 278.382 234.881 299.833 248.989C329.862 268.737 365.478 277.367 401.023 269.925C428.864 264.01 453.168 247.172 468.49 223.185C496.292 180.429 491.408 124.85 481.388 77.4075C487.7 77.3061 494.009 77.0757 500.311 76.7163Z"/><path fill="#FEFEFE" d="M63.5441 489.236C67.9104 490.499 72.3026 492.634 76.5354 494.322L107.583 507.054L177.013 534.836C189.464 539.731 201.852 544.92 214.483 549.328C212.815 553.907 210.028 566.602 208.328 569.643C158.116 547.828 106.55 529.115 56.0341 508.057C58.0253 501.7 61.0139 495.404 63.5441 489.236Z"/><path fill="#FEFEFE" d="M834.498 163.051C841.04 164.902 847.493 167.818 853.878 170.195C844.381 199.316 833.72 228.128 823.617 257.052C817.177 275.49 811.706 294.57 804.107 312.55C797.471 310.244 790.924 307.186 784.584 304.162C787.802 297.139 790.066 289.731 792.614 282.45L803.736 251.088C814.24 221.841 825.699 192.874 834.498 163.051Z"/><path fill="#FEFEFE" d="M470.365 81.8956C471.878 83.6132 472.298 87.3015 472.86 89.534C428.938 131.773 374.867 159.842 316.244 175.623C295.678 181.159 274.301 185.4 252.999 186.473C251.834 185.491 251.19 184.712 250.868 183.243C252.604 180.754 261.401 180.483 264.501 179.902C288.446 175.572 311.994 169.278 334.906 161.085C377.534 145.849 439.683 115.132 470.365 81.8956Z"/></svg>